<?xml version="1.0" standalone="no"?>
<!DOCTYPE svg PUBLIC "-//W3C//DTD SVG 20010904//EN"
 "http://www.w3.org/TR/2001/REC-SVG-20010904/DTD/svg10.dtd">
<svg version="1.0" xmlns="http://www.w3.org/2000/svg"
 width="700.000000pt" height="700.000000pt" viewBox="0 0 700.000000 700.000000"
 preserveAspectRatio="xMidYMid meet">
<metadata>
Created by potrace 1.11, written by Peter Selinger 2001-2013
</metadata>
<g transform="translate(0.000000,700.000000) scale(0.100000,-0.100000)"
fill="#000000" stroke="none">
<path d="M2740 6981 c-525 -112 -1036 -356 -1480 -709 -129 -103 -459 -433
-560 -561 -306 -389 -526 -829 -656 -1316 -61 -230 -55 -392 22 -553 44 -92
144 -199 233 -252 68 -40 177 -80 218 -80 44 0 23 -15 -36 -27 -142 -27 -311
-147 -389 -276 -61 -101 -85 -187 -88 -322 -3 -131 3 -166 67 -388 134 -465
387 -934 703 -1302 90 -106 365 -367 494 -471 408 -326 883 -561 1386 -685
165 -40 242 -46 347 -25 132 27 219 74 315 170 92 93 147 191 168 303 12 60
14 64 20 38 34 -151 87 -255 176 -344 148 -149 357 -209 570 -166 242 49 601
175 841 296 931 466 1615 1318 1868 2324 56 225 49 367 -25 523 -40 82 -137
192 -213 241 -64 41 -159 79 -224 90 -56 8 -52 12 33 31 104 23 198 77 286
164 96 96 143 183 170 315 21 109 15 195 -31 371 -128 503 -348 945 -676 1360
-101 129 -410 439 -539 542 -413 328 -854 549 -1360 679 -253 65 -374 62 -536
-16 -89 -43 -202 -145 -252 -228 -40 -67 -82 -180 -82 -224 0 -18 -4 -33 -10
-33 -5 0 -10 15 -10 33 0 44 -42 157 -82 224 -50 83 -163 185 -252 228 -135
65 -260 79 -416 46z"/>
</g>
</svg>
