<svg id="poppy" xmlns="http://www.w3.org/2000/svg" xmlns:xlink="http://www.w3.org/1999/xlink" viewBox="0 0 503.907690 503.907690" shape-rendering="geometricPrecision" text-rendering="geometricPrecision"><style><![CDATA[#poppy-top-left {animation: poppy-top-left_c_o 2000ms linear infinite normal forwards}@keyframes poppy-top-left_c_o { 0% {opacity: 0.500000} 25% {opacity: 1} 75% {opacity: 1} 100% {opacity: 0.500000} }#poppy-top-right {animation: poppy-top-right_c_o 2000ms linear infinite normal forwards}@keyframes poppy-top-right_c_o { 0% {opacity: 1} 25% {opacity: 0.500000} 50% {opacity: 1} 100% {opacity: 1} }#poppy-bottom-right {animation: poppy-bottom-right_c_o 2000ms linear infinite normal forwards}@keyframes poppy-bottom-right_c_o { 0% {opacity: 1} 25% {opacity: 1} 50% {opacity: 0.500000} 75% {opacity: 1} 100% {opacity: 1} }#poppy-bottom-left {animation: poppy-bottom-left_c_o 2000ms linear infinite normal forwards}@keyframes poppy-bottom-left_c_o { 0% {opacity: 1} 50% {opacity: 1} 75% {opacity: 0.500000} 100% {opacity: 1} }]]></style><g id="poppy-top-left" opacity="0.5"><path id="poppy-path1" d="M173.503906,251.953125L44.203125,251.953125C30.929688,251.968750,18.351562,246.011719,9.957031,235.730469C1.558594,225.449219,-1.765625,211.933594,0.898438,198.929688C21.914062,99.554688,99.554688,21.914062,198.929688,0.898438C211.933594,-1.765625,225.449219,1.558594,235.730469,9.957031C246.011719,18.351562,251.968750,30.929688,251.953125,44.203125L251.953125,173.503906ZM173.503906,251.953125" fill="rgb(192,58,43)" stroke="none" stroke-width="1"/><path id="poppy-path2" d="M0.121094,200.050781C0.105469,199.789062,0.132812,199.523438,0.207031,199.269531C9.609375,154.621094,30.796875,113.300781,61.558594,79.601562C95.257812,48.835938,136.578125,27.652344,181.226562,18.246094C194.234375,15.582031,207.750000,18.906250,218.031250,27.304688C228.312500,35.703125,234.269531,48.285156,234.250000,61.558594L234.250000,190.859375L199.539062,235.628906L43.507812,235.628906C22.421875,235.609375,4.269531,220.726562,0.121094,200.050781ZM0.121094,200.050781" fill="rgb(230,76,60)" stroke="none" stroke-width="1"/></g><g id="poppy-top-right"><path id="poppy-path3" d="M251.953125,173.503906L251.953125,44.203125C251.937500,30.929688,257.898438,18.351562,268.179688,9.957031C278.460938,1.558594,291.972656,-1.765625,304.976562,0.898438C404.351562,21.914062,481.992188,99.554688,503.007812,198.929688C505.671875,211.933594,502.347656,225.449219,493.953125,235.730469C485.554688,246.011719,472.980469,251.968750,459.703125,251.953125L330.402344,251.953125ZM251.953125,173.503906" fill="rgb(192,58,43)" stroke="none" stroke-width="1"/><path id="poppy-path4" d="M503.093750,200.050781C503.109375,199.789062,503.078125,199.523438,503.007812,199.269531C493.601562,154.621094,472.417969,113.300781,441.652344,79.601562C407.953125,48.835938,366.636719,27.652344,321.984375,18.246094C308.980469,15.582031,295.464844,18.906250,285.183594,27.304688C274.902344,35.703125,268.945312,48.285156,268.960938,61.558594L268.960938,190.859375L312.351562,235.628906L459.703125,235.628906C480.792969,235.609375,498.941406,220.726562,503.093750,200.050781ZM503.093750,200.050781" fill="rgb(230,76,60)" stroke="none" stroke-width="1"/></g><g id="poppy-bottom-right"><path id="poppy-path5" d="M503.093750,304.195312C503.109375,304.457031,503.078125,304.722656,503.007812,304.976562C481.992188,404.351562,404.351562,481.992188,304.976562,503.007812C291.972656,505.671875,278.460938,502.347656,268.179688,493.953125C257.898438,485.554688,251.937500,472.980469,251.953125,459.703125L251.953125,330.402344L330.402344,251.953125L459.703125,251.953125C472.835938,251.929688,485.296875,257.765625,493.687500,267.867188C502.078125,277.972656,505.527344,291.289062,503.093750,304.195312ZM503.093750,304.195312" fill="rgb(192,58,43)" stroke="none" stroke-width="1"/><path id="poppy-path6" d="M503.093750,304.195312C503.109375,304.457031,503.078125,304.722656,503.007812,304.976562C493.601562,349.625000,472.417969,390.945312,441.652344,424.644531C407.953125,455.410156,366.636719,476.593750,321.984375,486C308.980469,488.664062,295.468750,485.339844,285.187500,476.941406C274.906250,468.546875,268.949219,455.968750,268.960938,442.695312L268.960938,312.351562L312.351562,268.617188L459.703125,268.617188C480.792969,268.636719,498.941406,283.519531,503.093750,304.195312ZM503.093750,304.195312" fill="rgb(230,76,60)" stroke="none" stroke-width="1"/></g><g id="poppy-bottom-left"><path id="poppy-path7" d="M251.953125,330.402344L251.953125,459.703125C251.968750,472.980469,246.011719,485.554688,235.730469,493.953125C225.449219,502.347656,211.933594,505.671875,198.929688,503.007812C99.554688,481.992188,21.914062,404.351562,0.898438,304.976562C-1.765625,291.972656,1.558594,278.460938,9.957031,268.179688C18.351562,257.898438,30.929688,251.937500,44.203125,251.953125L173.503906,251.953125ZM251.953125,330.402344" fill="rgb(192,58,43)" stroke="none" stroke-width="1"/><path id="poppy-path8" d="M0.121094,304.195312C0.105469,304.457031,0.132812,304.722656,0.207031,304.976562C9.609375,349.625000,30.796875,390.945312,61.558594,424.644531C95.257812,455.410156,136.578125,476.593750,181.226562,486C194.230469,488.664062,207.746094,485.339844,218.027344,476.941406C228.308594,468.546875,234.265625,455.968750,234.250000,442.695312L234.250000,330.054688L172.812500,268.617188L43.507812,268.617188C22.421875,268.636719,4.269531,283.519531,0.121094,304.195312ZM0.121094,304.195312" fill="rgb(230,76,60)" stroke="none" stroke-width="1"/></g><g id="poppy-lines"><path id="poppy-path9" d="M204.746094,213.421875C202.445312,213.421875,200.238281,212.507812,198.609375,210.882812L97.945312,110.214844C94.656250,106.812500,94.703125,101.398438,98.050781,98.050781C101.398438,94.703125,106.812500,94.656250,110.214844,97.945312L210.882812,198.609375C213.363281,201.093750,214.105469,204.824219,212.761719,208.066406C211.417969,211.308594,208.253906,213.421875,204.746094,213.421875ZM204.746094,213.421875" fill="rgb(128,47,52)" stroke="none" stroke-width="1"/><path id="poppy-path10" d="M103.562500,408.332031C100.050781,408.328125,96.886719,406.214844,95.546875,402.972656C94.203125,399.730469,94.945312,396,97.425781,393.515625L197.656250,293.261719C199.851562,291.062500,203.054688,290.207031,206.054688,291.011719C209.054688,291.816406,211.398438,294.160156,212.203125,297.160156C213.007812,300.160156,212.148438,303.359375,209.953125,305.558594L109.722656,405.789062C108.089844,407.421875,105.871094,408.335938,103.562500,408.332031ZM103.562500,408.332031" fill="rgb(128,47,52)" stroke="none" stroke-width="1"/><path id="poppy-path11" d="M399.851562,408.531250C397.546875,408.531250,395.335938,407.617188,393.707031,405.988281L293.042969,305.324219C289.753906,301.917969,289.800781,296.503906,293.148438,293.160156C296.496094,289.812500,301.910156,289.765625,305.316406,293.050781L405.980469,393.718750C408.464844,396.199219,409.210938,399.933594,407.867188,403.179688C406.523438,406.425781,403.355469,408.542969,399.843750,408.539062ZM399.851562,408.531250" fill="rgb(128,47,52)" stroke="none" stroke-width="1"/><path id="poppy-path12" d="M298.554688,213.335938C295.046875,213.335938,291.882812,211.222656,290.539062,207.980469C289.195312,204.738281,289.937500,201.003906,292.417969,198.523438L393.300781,97.640625C396.707031,94.355469,402.117188,94.402344,405.464844,97.746094C408.812500,101.093750,408.859375,106.507812,405.570312,109.914062L304.691406,210.820312C303.058594,212.437500,300.851562,213.343750,298.554688,213.335938ZM298.554688,213.335938" fill="rgb(128,47,52)" stroke="none" stroke-width="1"/><path id="poppy-path13" d="M181.574219,231.906250C180.457031,231.910156,179.347656,231.695312,178.312500,231.273438L94.656250,197.343750C90.214844,195.542969,88.074219,190.480469,89.875000,186.035156C91.675781,181.593750,96.738281,179.453125,101.183594,181.253906L184.839844,215.183594C188.691406,216.742188,190.898438,220.812500,190.101562,224.890625C189.304688,228.968750,185.730469,231.910156,181.574219,231.906250ZM181.574219,231.906250" fill="rgb(128,47,52)" stroke="none" stroke-width="1"/><path id="poppy-path14" d="M188.996094,414.632812C186.109375,414.632812,183.410156,413.195312,181.792969,410.800781C180.179688,408.406250,179.863281,405.367188,180.949219,402.691406L214.839844,319.070312C216.003906,316.195312,218.613281,314.160156,221.683594,313.730469C224.753906,313.304688,227.820312,314.546875,229.726562,316.992188C231.632812,319.437500,232.089844,322.710938,230.925781,325.585938L197.039062,409.207031C195.714844,412.484375,192.531250,414.632812,188.996094,414.632812ZM188.996094,414.632812" fill="rgb(128,47,52)" stroke="none" stroke-width="1"/><path id="poppy-path15" d="M406.074219,322.949219C404.957031,322.945312,403.851562,322.730469,402.820312,322.304688L319.078125,288.375000C315.164062,286.855469,312.902344,282.750000,313.703125,278.628906C314.503906,274.507812,318.144531,271.550781,322.339844,271.609375C323.777344,271.609375,325.191406,271.960938,326.460938,272.632812L409.335938,306.218750C413.199219,307.769531,415.417969,311.843750,414.621094,315.929688C413.824219,320.019531,410.238281,322.960938,406.074219,322.949219ZM406.074219,322.949219" fill="rgb(128,47,52)" stroke="none" stroke-width="1"/><path id="poppy-path16" d="M279.984375,190.339844C277.097656,190.339844,274.398438,188.906250,272.785156,186.511719C271.167969,184.117188,270.851562,181.074219,271.937500,178.398438L305.914062,94.570312C307.078125,91.695312,309.687500,89.660156,312.757812,89.234375C315.828125,88.804688,318.894531,90.046875,320.800781,92.492188C322.710938,94.937500,323.167969,98.214844,322.003906,101.085938L288.054688,184.917969C286.722656,188.203125,283.527344,190.351562,279.984375,190.339844ZM279.984375,190.339844" fill="rgb(128,47,52)" stroke="none" stroke-width="1"/><path id="poppy-path17" d="M321.984375,231.734375C317.828125,231.738281,314.253906,228.796875,313.460938,224.718750C312.664062,220.640625,314.871094,216.570312,318.722656,215.011719L402.507812,181.039062C406.949219,179.234375,412.011719,181.375000,413.816406,185.820312C415.617188,190.261719,413.476562,195.324219,409.035156,197.125000L325.238281,231.101562C324.207031,231.519531,323.101562,231.734375,321.984375,231.734375ZM321.984375,231.734375" fill="rgb(128,47,52)" stroke="none" stroke-width="1"/><path id="poppy-path18" d="M314.140625,414.500000C310.601562,414.503906,307.414062,412.359375,306.085938,409.078125L272.027344,325.074219C270.222656,320.632812,272.363281,315.570312,276.808594,313.765625C281.250000,311.964844,286.312500,314.105469,288.113281,318.546875L322.175781,402.550781C323.265625,405.226562,322.953125,408.269531,321.339844,410.664062C319.726562,413.062500,317.027344,414.500000,314.140625,414.500000ZM314.140625,414.500000" fill="rgb(128,47,52)" stroke="none" stroke-width="1"/><path id="poppy-path19" d="M98.058594,322.550781C93.902344,322.554688,90.328125,319.609375,89.535156,315.531250C88.738281,311.453125,90.945312,307.386719,94.796875,305.828125L178.843750,271.765625C183.285156,269.964844,188.343750,272.109375,190.144531,276.550781C191.945312,280.996094,189.800781,286.054688,185.359375,287.855469L101.312500,321.898438C100.281250,322.320312,99.175781,322.539062,98.058594,322.550781ZM98.058594,322.550781" fill="rgb(128,47,52)" stroke="none" stroke-width="1"/><path id="poppy-path20" d="M223.402344,190.687500C219.871094,190.687500,216.687500,188.546875,215.359375,185.273438L181.316406,101.398438C180.148438,98.527344,180.605469,95.250000,182.511719,92.800781C184.417969,90.355469,187.484375,89.109375,190.554688,89.539062C193.628906,89.964844,196.238281,92,197.402344,94.875000L231.421875,178.746094C232.507812,181.421875,232.191406,184.464844,230.578125,186.859375C228.964844,189.253906,226.265625,190.687500,223.378906,190.687500ZM223.402344,190.687500" fill="rgb(128,47,52)" stroke="none" stroke-width="1"/></g><path id="poppy-outer-core" d="M330.402344,251.605469C330.382812,243.105469,324.214844,235.871094,315.824219,234.511719C322.261719,229.062500,323.902344,219.796875,319.730469,212.468750C315.468750,205.062500,306.445312,201.859375,298.468750,204.917969C301.390625,196.953125,298.128906,188.042969,290.753906,183.851562C283.375000,179.656250,274.050781,181.410156,268.703125,187.996094C267.226562,179.695312,260,173.656250,251.570312,173.679688C243.140625,173.699219,235.945312,179.777344,234.511719,188.085938C229.062500,181.648438,219.796875,180.003906,212.468750,184.179688C205.062500,188.441406,201.859375,197.460938,204.917969,205.441406C196.953125,202.515625,188.042969,205.781250,183.851562,213.156250C179.656250,220.531250,181.410156,229.855469,187.996094,235.207031C179.695312,236.679688,173.656250,243.906250,173.679688,252.335938C173.699219,260.765625,179.777344,267.964844,188.085938,269.398438C181.648438,274.847656,180.003906,284.109375,184.179688,291.437500C188.441406,298.847656,197.460938,302.050781,205.441406,298.988281C202.515625,306.953125,205.781250,315.863281,213.156250,320.054688C220.531250,324.250000,229.855469,322.496094,235.207031,315.910156C236.679688,324.210938,243.906250,330.250000,252.335938,330.226562C260.765625,330.207031,267.964844,324.132812,269.398438,315.824219C274.847656,322.261719,284.109375,323.902344,291.437500,319.730469C298.847656,315.468750,302.050781,306.445312,298.988281,298.468750C306.953125,301.390625,315.863281,298.128906,320.054688,290.753906C324.250000,283.375000,322.496094,274.050781,315.910156,268.703125C324.265625,267.304688,330.390625,260.078125,330.402344,251.605469ZM330.402344,251.605469" fill="rgb(94,95,98)" stroke="none" stroke-width="1"/><path id="poppy-inner-core" d="M277.953125,266.730469C276.171875,269.824219,275.886719,273.558594,277.179688,276.886719C273.839844,275.621094,270.105469,275.937500,267.027344,277.746094C263.949219,279.554688,261.855469,282.664062,261.335938,286.195312C259.093750,283.449219,255.734375,281.855469,252.187500,281.859375C248.597656,281.839844,245.203125,283.484375,242.988281,286.308594C242.410156,282.789062,240.273438,279.718750,237.175781,277.945312C234.082031,276.175781,230.351562,275.890625,227.023438,277.171875C228.289062,273.832031,227.972656,270.097656,226.160156,267.019531C224.351562,263.941406,221.246094,261.847656,217.710938,261.324219C220.460938,259.085938,222.054688,255.726562,222.050781,252.179688C222.070312,248.589844,220.425781,245.191406,217.597656,242.980469C221.117188,242.398438,224.187500,240.265625,225.960938,237.167969C227.734375,234.070312,228.019531,230.343750,226.734375,227.011719C230.074219,228.277344,233.808594,227.960938,236.890625,226.152344C239.968750,224.343750,242.062500,221.234375,242.582031,217.703125C244.824219,220.449219,248.183594,222.042969,251.726562,222.039062C255.316406,222.058594,258.714844,220.417969,260.925781,217.589844C261.507812,221.109375,263.640625,224.179688,266.738281,225.953125C269.835938,227.726562,273.566406,228.007812,276.894531,226.726562C275.628906,230.066406,275.945312,233.800781,277.753906,236.878906C279.562500,239.960938,282.671875,242.054688,286.207031,242.574219C283.457031,244.812500,281.863281,248.171875,281.867188,251.718750C281.847656,255.308594,283.492188,258.707031,286.320312,260.917969C282.792969,261.484375,279.710938,263.625000,277.953125,266.730469ZM277.953125,266.730469" fill="rgb(44,47,56)" stroke="none" stroke-width="1"/></svg>